<svg aria-hidden="true" style="position: absolute; width: 0; height: 0; overflow: hidden;" version="1.1"
    xmlns="http://www.w3.org/2000/svg" xmlns:xlink="http://www.w3.org/1999/xlink">
    <defs>
        <symbol id="icon-arrow" viewBox="0 0 51 32">
            <path
                d="M35.756 1.548l-2.381 2.383 10.599 10.599h-42.483v3.368h41.996l-10.595 10.599 2.381 2.383 14.912-14.91-14.429-14.422z">
            </path>
        </symbol>
        <symbol id="icon-dribble" viewBox="0 0 32 32">
            <path
                d="M31.427 12.829c-0.205-1.005-0.512-1.992-0.911-2.937-0.393-0.928-0.877-1.821-1.443-2.656-0.556-0.828-1.199-1.603-1.905-2.307-0.709-0.709-1.484-1.352-2.311-1.908-0.834-0.566-1.729-1.053-2.656-1.446-0.941-0.397-1.933-0.702-2.936-0.906-1.029-0.212-2.088-0.321-3.146-0.321-1.059 0-2.117 0.109-3.148 0.321-1.002 0.204-1.992 0.509-2.935 0.906-0.927 0.393-1.821 0.88-2.654 1.446-0.827 0.556-1.607 1.199-2.316 1.908-0.702 0.705-1.346 1.48-1.905 2.307-0.563 0.835-1.049 1.728-1.439 2.656-0.399 0.946-0.709 1.933-0.913 2.937-0.209 1.028-0.317 2.088-0.317 3.145 0 1.059 0.109 2.12 0.317 3.144 0.204 1.005 0.514 1.995 0.913 2.937 0.39 0.928 0.877 1.821 1.439 2.659 0.559 0.823 1.203 1.603 1.905 2.307 0.709 0.709 1.489 1.349 2.316 1.905 0.834 0.566 1.727 1.053 2.654 1.446 0.942 0.397 1.933 0.702 2.935 0.906 1.031 0.216 2.088 0.321 3.148 0.321 1.058 0 2.117-0.105 3.146-0.321 1.004-0.204 1.995-0.509 2.936-0.906 0.927-0.393 1.822-0.88 2.656-1.446 0.827-0.556 1.602-1.196 2.311-1.905 0.706-0.705 1.349-1.485 1.905-2.307 0.566-0.839 1.049-1.731 1.443-2.659 0.399-0.942 0.706-1.933 0.911-2.937 0.212-1.025 0.316-2.086 0.316-3.144 0-1.057-0.104-2.117-0.316-3.145zM29.46 15.838c-0.196-0.039-4.711-1.011-9.294-0.435-0.094-0.229-0.191-0.459-0.288-0.688-0.28-0.653-0.578-1.299-0.887-1.935 5.268-2.152 7.406-5.245 7.434-5.283 1.87 2.273 3.004 5.18 3.035 8.342zM24.934 5.96c-0.035 0.052-1.936 2.944-6.973 4.83-2.279-4.19-4.786-7.522-4.986-7.784 1.011-0.243 2.061-0.376 3.144-0.376 3.379 0 6.462 1.258 8.814 3.331zM12.922 3.016v0.003c0 0-0.018 0.003-0.041 0.007 0 0 0.029-0.003 0.041-0.010zM10.427 3.906c0.173 0.237 2.645 3.584 4.952 7.688-6.406 1.704-11.967 1.635-12.321 1.63 0.869-4.131 3.646-7.56 7.368-9.318zM2.774 15.974c0-0.143 0.007-0.282 0.010-0.421 0.237 0.003 6.832 0.152 13.701-1.901 0.383 0.748 0.751 1.508 1.084 2.269-0.176 0.045-0.35 0.102-0.528 0.157-7.201 2.325-10.851 8.808-10.851 8.808l0.003 0.006c-2.124-2.366-3.42-5.49-3.42-8.917zM16.12 29.32c-3.229 0-6.194-1.151-8.502-3.059 0.174 0.143 0.3 0.234 0.3 0.234s2.557-5.579 10.472-8.339c0.031-0.009 0.060-0.021 0.088-0.024 1.88 4.877 2.654 8.964 2.851 10.131-1.599 0.678-3.359 1.058-5.208 1.058zM23.576 27.039c-0.136-0.803-0.849-4.718-2.597-9.529 4.307-0.688 8.039 0.493 8.317 0.584-0.595 3.719-2.721 6.928-5.72 8.946z">
            </path>
        </symbol>
        <symbol id="icon-fb" viewBox="0 0 15 32">
            <path
                d="M14.677 10.434h-4.963v-3.252c0-1.225 0.809-1.507 1.381-1.507 0.57 0 3.502 0 3.502 0v-5.377l-4.824-0.016c-5.354 0-6.571 4.005-6.571 6.571v3.581h-3.098v5.539h3.098c0 7.107 0 15.667 0 15.667h6.512c0 0 0-8.645 0-15.667h4.395l0.567-5.539z">
            </path>
        </symbol>
        <symbol id="icon-twitter" viewBox="0 0 32 32">
            <path
                d="M31.869 3.008c-1.143 0.506-2.373 0.852-3.667 1.005 1.317-0.789 2.332-2.041 2.809-3.536-1.234 0.733-2.604 1.267-4.056 1.555-1.165-1.244-2.825-2.020-4.664-2.020-3.528 0-6.388 2.861-6.388 6.388 0 0.502 0.059 0.987 0.167 1.458-5.31-0.265-10.016-2.809-13.168-6.678-0.55 0.942-0.867 2.045-0.867 3.215 0 2.215 1.129 4.168 2.843 5.318-1.046-0.035-2.033-0.323-2.894-0.803 0 0.028 0 0.056 0 0.083 0 3.092 2.203 5.677 5.127 6.264-0.54 0.145-1.102 0.222-1.686 0.222-0.41 0-0.81-0.038-1.199-0.115 0.809 2.541 3.17 4.387 5.964 4.439-2.186 1.714-4.939 2.735-7.931 2.735-0.518 0-1.026-0.031-1.526-0.090 2.829 1.811 6.186 2.87 9.794 2.87 11.752 0 18.178-9.735 18.178-18.178 0-0.275-0.006-0.552-0.021-0.827 1.248-0.899 2.333-2.024 3.187-3.304z">
            </path>
        </symbol>
    </defs>
</svg>