<!-- Generated by IcoMoon.io -->
<svg version="1.1" xmlns="http://www.w3.org/2000/svg" width="32" height="32" viewBox="0 0 32 32">
<title>twitter</title>
<path fill="#fff" d="M31.869 3.008c-1.143 0.506-2.373 0.852-3.667 1.005 1.317-0.789 2.332-2.041 2.809-3.536-1.234 0.733-2.604 1.267-4.056 1.555-1.165-1.244-2.825-2.020-4.664-2.020-3.528 0-6.388 2.861-6.388 6.388 0 0.502 0.059 0.987 0.167 1.458-5.31-0.265-10.016-2.809-13.168-6.678-0.55 0.942-0.867 2.045-0.867 3.215 0 2.215 1.129 4.168 2.843 5.318-1.046-0.035-2.033-0.323-2.894-0.803 0 0.028 0 0.056 0 0.083 0 3.092 2.203 5.677 5.127 6.264-0.54 0.145-1.102 0.222-1.686 0.222-0.41 0-0.81-0.038-1.199-0.115 0.809 2.541 3.17 4.387 5.964 4.439-2.186 1.714-4.939 2.735-7.931 2.735-0.518 0-1.026-0.031-1.526-0.090 2.829 1.811 6.186 2.87 9.794 2.87 11.752 0 18.178-9.735 18.178-18.178 0-0.275-0.006-0.552-0.021-0.827 1.248-0.899 2.333-2.024 3.187-3.304z"></path>
</svg>
